HIERARCHY
ROOT newVegas:Hips
{
	OFFSET 0.000000 96.479958 0.000000
	CHANNELS 6 Xposition Yposition Zposition Xrotation Yrotation Zrotation
	JOINT newVegas:Pelvis
	{
		OFFSET 0.000000 0.000000 0.000000
		CHANNELS 3 Xrotation Yrotation Zrotation
		JOINT newVegas:LeftUpLeg
		{
			OFFSET 18.735201 -5.666702 -4.541200
			CHANNELS 3 Xrotation Yrotation Zrotation
			JOINT newVegas:LeftLeg
			{
				OFFSET -0.021200 -31.938179 0.493100
				CHANNELS 3 Xrotation Yrotation Zrotation
				JOINT newVegas:LeftFoot
				{
					OFFSET 0.021200 -31.938179 -4.336299
					CHANNELS 3 Xrotation Yrotation Zrotation
					JOINT newVegas:LeftToeBase
					{
						OFFSET 0.943001 -26.722000 15.023500
						CHANNELS 3 Xrotation Yrotation Zrotation
						End Site
						{
							OFFSET 0.000000 30.670183 0.000000
						}
					}
				}
				JOINT newVegas:Left_PantLeg
				{
					OFFSET 0.663870 -9.044666 -1.108900
					CHANNELS 3 Xrotation Yrotation Zrotation
					End Site
					{
						OFFSET 1.415995 20.635357 0.000000
					}
				}
			}
		}
		JOINT newVegas:RightUpLeg
		{
			OFFSET -18.735201 -5.666702 -4.541200
			CHANNELS 3 Xrotation Yrotation Zrotation
			JOINT newVegas:RightLeg
			{
				OFFSET 0.018946 -31.938133 0.493100
				CHANNELS 3 Xrotation Yrotation Zrotation
				JOINT newVegas:RightFoot
				{
					OFFSET -0.018946 -31.938126 -4.336299
					CHANNELS 3 Xrotation Yrotation Zrotation
					JOINT newVegas:RightToeBase
					{
						OFFSET -0.943001 -26.722004 15.023500
						CHANNELS 3 Xrotation Yrotation Zrotation
						End Site
						{
							OFFSET 0.000000 30.670187 0.000000
						}
					}
				}
				JOINT newVegas:Right_PantLeg
				{
					OFFSET -0.661674 -9.044716 -1.108900
					CHANNELS 3 Xrotation Yrotation Zrotation
					End Site
					{
						OFFSET -1.415958 20.635269 0.000000
					}
				}
			}
		}
	}
	JOINT newVegas:Spine
	{
		OFFSET 0.000000 10.199997 -0.299500
		CHANNELS 3 Xrotation Yrotation Zrotation
		JOINT newVegas:Spine1
		{
			OFFSET 0.000000 11.900002 -1.516600
			CHANNELS 3 Xrotation Yrotation Zrotation
			JOINT newVegas:Spine2
			{
				OFFSET 0.000000 13.600006 -2.842500
				CHANNELS 3 Xrotation Yrotation Zrotation
				JOINT newVegas:Neck
				{
					OFFSET 0.000000 9.624100 -2.890100
					CHANNELS 3 Xrotation Yrotation Zrotation
					JOINT newVegas:Head
					{
						OFFSET 0.000000 14.068802 -1.351900
						CHANNELS 3 Xrotation Yrotation Zrotation
						JOINT newVegas:Hair_Back
						{
							OFFSET 0.000000 3.231903 -17.524799
							CHANNELS 3 Xrotation Yrotation Zrotation
							End Site
							{
								OFFSET 0.000000 19.849884 0.000000
							}
						}
						JOINT newVegas:Hair_Front
						{
							OFFSET 0.000000 31.260406 4.573800
							CHANNELS 3 Xrotation Yrotation Zrotation
							JOINT newVegas:Hair_Front1
							{
								OFFSET 0.000000 2.284103 11.993300
								CHANNELS 3 Xrotation Yrotation Zrotation
								JOINT newVegas:Hair_Front2
								{
									OFFSET 0.000000 2.284103 11.993300
									CHANNELS 3 Xrotation Yrotation Zrotation
									End Site
									{
										OFFSET 0.000000 12.208862 0.000000
									}
								}
							}
						}
						JOINT newVegas:Jowel
						{
							OFFSET 0.000000 -7.458206 6.864100
							CHANNELS 3 Xrotation Yrotation Zrotation
							End Site
							{
								OFFSET 0.000000 19.849884 0.000000
							}
						}
					}
				}
				JOINT newVegas:LeftShoulder
				{
					OFFSET 15.263000 10.923401 -0.547700
					CHANNELS 3 Xrotation Yrotation Zrotation
					JOINT newVegas:LeftArm
					{
						OFFSET 25.438599 -2.830597 -13.032500
						CHANNELS 3 Xrotation Yrotation Zrotation
						JOINT newVegas:LeftForeArm
						{
							OFFSET 29.960503 0.000000 0.000000
							CHANNELS 3 Xrotation Yrotation Zrotation
							JOINT newVegas:LeftHand
							{
								OFFSET 27.849251 0.000000 0.000000
								CHANNELS 3 Xrotation Yrotation Zrotation
								JOINT newVegas:LeftHandThumb1
								{
									OFFSET 4.487587 -3.305161 6.305391
									CHANNELS 3 Xrotation Yrotation Zrotation
									JOINT newVegas:LeftHandThumb2
									{
										OFFSET 5.480453 -3.164139 3.164143
										CHANNELS 3 Xrotation Yrotation Zrotation
										JOINT newVegas:LeftHandThumb3
										{
											OFFSET 5.159721 -2.978973 2.978967
											CHANNELS 3 Xrotation Yrotation Zrotation
											End Site
											{
												OFFSET 2.494507 5.926697 1.738678
											}
										}
									}
								}
								JOINT newVegas:LeftHandIndex1
								{
									OFFSET 18.578728 -0.527832 5.208049
									CHANNELS 3 Xrotation Yrotation Zrotation
									JOINT newVegas:LeftHandIndex2
									{
										OFFSET 3.192009 0.000000 0.000000
										CHANNELS 3 Xrotation Yrotation Zrotation
										JOINT newVegas:LeftHandIndex3
										{
											OFFSET 3.835129 0.000000 0.000000
											CHANNELS 3 Xrotation Yrotation Zrotation
											End Site
											{
												OFFSET -0.034599 3.816971 0.371180
											}
										}
									}
								}
								JOINT newVegas:LeftHandMiddle1
								{
									OFFSET 18.476105 0.000000 0.000000
									CHANNELS 3 Xrotation Yrotation Zrotation
									JOINT newVegas:LeftHandMiddle2
									{
										OFFSET 3.324875 0.000000 0.000000
										CHANNELS 3 Xrotation Yrotation Zrotation
										JOINT newVegas:LeftHandMiddle3
										{
											OFFSET 4.596550 0.000000 0.000000
											CHANNELS 3 Xrotation Yrotation Zrotation
											End Site
											{
												OFFSET 0.057701 4.578827 0.399218
											}
										}
									}
								}
								JOINT newVegas:LeftHandRing1
								{
									OFFSET 17.732719 0.121887 -4.201567
									CHANNELS 3 Xrotation Yrotation Zrotation
									JOINT newVegas:LeftHandRing2
									{
										OFFSET 2.733170 0.000000 0.000000
										CHANNELS 3 Xrotation Yrotation Zrotation
										JOINT newVegas:LeftHandRing3
										{
											OFFSET 3.178268 0.000000 0.000000
											CHANNELS 3 Xrotation Yrotation Zrotation
											End Site
											{
												OFFSET 0.119102 3.170624 0.185394
											}
										}
									}
								}
								JOINT newVegas:LeftHandPinky1
								{
									OFFSET 15.989624 -0.606689 -7.535461
									CHANNELS 3 Xrotation Yrotation Zrotation
									JOINT newVegas:LeftHandPinky2
									{
										OFFSET 2.538986 0.000000 0.000000
										CHANNELS 3 Xrotation Yrotation Zrotation
										JOINT newVegas:LeftHandPinky3
										{
											OFFSET 2.593102 0.000000 0.000000
											CHANNELS 3 Xrotation Yrotation Zrotation
											End Site
											{
												OFFSET -0.150902 2.584198 0.152708
											}
										}
									}
								}
							}
							JOINT newVegas:Left_Sleeve
							{
								OFFSET 0.267448 -0.649796 0.577675
								CHANNELS 3 Xrotation Yrotation Zrotation
								End Site
								{
									OFFSET 0.000000 15.991241 0.000000
								}
							}
							JOINT newVegas:Left_CapeC
							{
								OFFSET 15.715958 -8.608795 -6.935905
								CHANNELS 3 Xrotation Yrotation Zrotation
								JOINT newVegas:Left_CapeC1
								{
									OFFSET 0.000000 -8.688499 0.000000
									CHANNELS 3 Xrotation Yrotation Zrotation
									End Site
									{
										OFFSET 0.000000 8.688499 0.000000
									}
								}
							}
						}
						JOINT newVegas:Left_CapeB
						{
							OFFSET 26.118385 -8.608795 -7.079235
							CHANNELS 3 Xrotation Yrotation Zrotation
							JOINT newVegas:Left_CapeB1
							{
								OFFSET 0.000000 -8.688499 0.000000
								CHANNELS 3 Xrotation Yrotation Zrotation
								End Site
								{
									OFFSET 0.000000 8.688499 0.000000
								}
							}
						}
						JOINT newVegas:Left_CapeA
						{
							OFFSET 5.115639 -8.608795 -10.395809
							CHANNELS 3 Xrotation Yrotation Zrotation
							JOINT newVegas:Left_CapeA1
							{
								OFFSET 0.000000 -8.688499 0.000000
								CHANNELS 3 Xrotation Yrotation Zrotation
								End Site
								{
									OFFSET 0.000000 8.688499 0.000000
								}
							}
						}
					}
				}
				JOINT newVegas:RightShoulder
				{
					OFFSET -15.263000 10.923401 -0.547700
					CHANNELS 3 Xrotation Yrotation Zrotation
					JOINT newVegas:RightArm
					{
						OFFSET -25.438599 -2.830597 -13.032500
						CHANNELS 3 Xrotation Yrotation Zrotation
						JOINT newVegas:RightForeArm
						{
							OFFSET -29.960503 0.000000 0.000000
							CHANNELS 3 Xrotation Yrotation Zrotation
							JOINT newVegas:RightHand
							{
								OFFSET -27.849251 0.000000 0.000000
								CHANNELS 3 Xrotation Yrotation Zrotation
								JOINT newVegas:RightHandThumb1
								{
									OFFSET -4.487587 -3.305161 6.305391
									CHANNELS 3 Xrotation Yrotation Zrotation
									JOINT newVegas:RightHandThumb2
									{
										OFFSET -5.480453 -3.164139 3.164143
										CHANNELS 3 Xrotation Yrotation Zrotation
										JOINT newVegas:RightHandThumb3
										{
											OFFSET -5.159721 -2.978973 2.978967
											CHANNELS 3 Xrotation Yrotation Zrotation
											End Site
											{
												OFFSET -2.494507 5.926697 1.738678
											}
										}
									}
								}
								JOINT newVegas:RightHandIndex1
								{
									OFFSET -18.578728 -0.527832 5.208049
									CHANNELS 3 Xrotation Yrotation Zrotation
									JOINT newVegas:RightHandIndex2
									{
										OFFSET -3.192009 0.000000 0.000000
										CHANNELS 3 Xrotation Yrotation Zrotation
										JOINT newVegas:RightHandIndex3
										{
											OFFSET -3.835129 0.000000 0.000000
											CHANNELS 3 Xrotation Yrotation Zrotation
											End Site
											{
												OFFSET 0.034599 3.816971 0.371180
											}
										}
									}
								}
								JOINT newVegas:RightHandMiddle1
								{
									OFFSET -18.476105 0.000000 0.000000
									CHANNELS 3 Xrotation Yrotation Zrotation
									JOINT newVegas:RightHandMiddle2
									{
										OFFSET -3.324875 0.000000 0.000000
										CHANNELS 3 Xrotation Yrotation Zrotation
										JOINT newVegas:RightHandMiddle3
										{
											OFFSET -4.596550 0.000000 0.000000
											CHANNELS 3 Xrotation Yrotation Zrotation
											End Site
											{
												OFFSET -0.057701 4.578827 0.399218
											}
										}
									}
								}
								JOINT newVegas:RightHandRing1
								{
									OFFSET -17.732719 0.121887 -4.201567
									CHANNELS 3 Xrotation Yrotation Zrotation
									JOINT newVegas:RightHandRing2
									{
										OFFSET -2.733170 0.000000 0.000000
										CHANNELS 3 Xrotation Yrotation Zrotation
										JOINT newVegas:RightHandRing3
										{
											OFFSET -3.178268 0.000000 0.000000
											CHANNELS 3 Xrotation Yrotation Zrotation
											End Site
											{
												OFFSET -0.119102 3.170624 0.185394
											}
										}
									}
								}
								JOINT newVegas:RightHandPinky1
								{
									OFFSET -15.989624 -0.606689 -7.535461
									CHANNELS 3 Xrotation Yrotation Zrotation
									JOINT newVegas:RightHandPinky2
									{
										OFFSET -2.538986 0.000000 0.000000
										CHANNELS 3 Xrotation Yrotation Zrotation
										JOINT newVegas:RightHandPinky3
										{
											OFFSET -2.593102 0.000000 0.000000
											CHANNELS 3 Xrotation Yrotation Zrotation
											End Site
											{
												OFFSET 0.150902 2.584198 0.152708
											}
										}
									}
								}
							}
							JOINT newVegas:Right_CapeC
							{
								OFFSET -15.715958 -8.608795 -6.935905
								CHANNELS 3 Xrotation Yrotation Zrotation
								JOINT newVegas:Right_CapeC1
								{
									OFFSET 0.000000 -8.688499 0.000000
									CHANNELS 3 Xrotation Yrotation Zrotation
									End Site
									{
										OFFSET 0.000000 8.688499 0.000000
									}
								}
							}
							JOINT newVegas:Right_Sleeve
							{
								OFFSET -0.267448 -0.649994 0.577675
								CHANNELS 3 Xrotation Yrotation Zrotation
								End Site
								{
									OFFSET 0.000000 15.991302 0.000000
								}
							}
						}
						JOINT newVegas:Right_CapeA
						{
							OFFSET -5.115540 -8.608795 -10.395824
							CHANNELS 3 Xrotation Yrotation Zrotation
							JOINT newVegas:Right_CapeA1
							{
								OFFSET 0.000000 -8.688499 0.000000
								CHANNELS 3 Xrotation Yrotation Zrotation
								End Site
								{
									OFFSET 0.000000 8.688499 0.000000
								}
							}
						}
						JOINT newVegas:Right_CapeB
						{
							OFFSET -26.118187 -8.608795 -7.079266
							CHANNELS 3 Xrotation Yrotation Zrotation
							JOINT newVegas:Right_CapeB1
							{
								OFFSET 0.000000 -8.688499 0.000000
								CHANNELS 3 Xrotation Yrotation Zrotation
								End Site
								{
									OFFSET 0.000000 8.688499 0.000000
								}
							}
						}
					}
				}
				JOINT newVegas:Left_Collar
				{
					OFFSET 18.625099 8.655502 8.828100
					CHANNELS 3 Xrotation Yrotation Zrotation
					JOINT newVegas:Left_Collar1
					{
						OFFSET 14.783401 10.540405 -1.259500
						CHANNELS 3 Xrotation Yrotation Zrotation
						End Site
						{
							OFFSET 0.000000 18.199875 0.000000
						}
					}
				}
				JOINT newVegas:Collar_Back
				{
					OFFSET 0.000000 15.630707 -20.132601
					CHANNELS 3 Xrotation Yrotation Zrotation
					End Site
					{
						OFFSET 0.000000 22.523010 0.000000
					}
				}
				JOINT newVegas:Left_Peck
				{
					OFFSET 17.239599 -5.132599 25.482599
					CHANNELS 3 Xrotation Yrotation Zrotation
					End Site
					{
						OFFSET 0.000000 22.523010 0.000000
					}
				}
				JOINT newVegas:Right_Peck
				{
					OFFSET -17.239599 -5.132202 25.482599
					CHANNELS 3 Xrotation Yrotation Zrotation
					End Site
					{
						OFFSET 0.000000 22.523010 0.000000
					}
				}
				JOINT newVegas:Right_Collar
				{
					OFFSET -18.625099 8.655792 8.828100
					CHANNELS 3 Xrotation Yrotation Zrotation
					JOINT newVegas:Right_Collar1
					{
						OFFSET -14.783401 10.539993 -1.259500
						CHANNELS 3 Xrotation Yrotation Zrotation
						End Site
						{
							OFFSET 0.000000 18.199631 0.000000
						}
					}
				}
			}
		}
		JOINT newVegas:Belly
		{
			OFFSET 0.000000 -6.540398 9.014299
			CHANNELS 3 Xrotation Yrotation Zrotation
			End Site
			{
				OFFSET 0.000000 11.566666 0.000000
			}
		}
	}
	JOINT newVegas:ElvisFacialAnim_Joint
	{
		OFFSET 1.000000 -95.330101 -8.825800
		CHANNELS 3 Xrotation Yrotation Zrotation
		End Site
		{
			OFFSET 0.000000 35.315800 0.000000
		}
	}
}
MOTION
Frames: 4
Frame Time: 0.016667
10.000757 90.398895 1.521647 4.157823 -46.527983 3.418673 -0.000000 -0.000002 0.000000 -17.578880 16.310417 4.253657 37.881807 23.772361 3.362397 -16.697622 22.435783 -13.823459 -0.000000 -0.000001 0.000000 -0.000001 -0.000000 -0.000001 -18.077422 -39.800820 -20.778923 34.361910 -11.295471 -2.216313 -18.499332 -8.854278 16.767006 -0.000000 -0.000002 -0.000000 0.000001 0.000000 -0.000000 9.998617 -5.760610 2.136002 3.056892 -1.359244 -0.696759 -8.919068 -4.431381 -1.692195 -1.679542 -1.080119 -0.819566 -1.679539 -1.080122 -0.819569 0.000000 -0.000002 0.000000 -1.679541 -1.080143 -0.819566 -1.679547 -1.080144 -0.819564 0.000000 0.000000 0.000000 0.000000 -0.000002 0.000000 -0.955896 -3.915913 -2.538330 13.282570 6.823605 -62.263595 -0.021053 -42.236882 -0.010390 -13.882440 -0.489228 0.693292 10.625191 -8.591993 14.272387 -0.294833 14.668207 -7.135004 0.000002 -0.000003 -0.000003 1.031653 -1.592170 -15.118854 -0.015778 -1.091856 -24.286203 -0.000002 0.000003 0.000001 1.615775 -0.182629 -33.849284 -0.338694 -1.382268 -28.184989 0.000004 0.000001 -0.000004 -0.356914 -2.845890 -41.642953 -0.398108 -1.519207 -29.911878 0.000000 0.000001 0.000001 0.340439 -1.216955 -35.934103 -0.410237 -1.748696 -33.792535 0.000001 -0.000000 0.000002 0.000000 0.000000 -0.000002 0.000000 0.000000 -0.000002 -0.000000 0.000000 -0.000002 0.000001 0.000000 -0.000000 0.000001 0.000000 0.000000 0.000001 0.000000 -0.000000 0.000000 -0.000000 0.000001 -0.771037 0.311215 0.884123 3.113848 10.823034 70.823837 0.587849 47.471027 -0.255419 14.368625 15.131243 2.773464 8.265279 7.734436 -18.880820 5.407327 -20.572678 9.835175 0.000000 -0.000004 -0.000001 0.428044 3.999539 18.226186 -0.076243 1.217080 27.275406 -0.000001 -0.000001 -0.000001 -5.761810 0.366117 35.692779 -0.334675 1.374766 28.018546 -0.000003 0.000002 -0.000001 -11.821793 -3.411378 42.352466 -0.510546 1.699980 33.914314 -0.000001 0.000004 -0.000000 -5.981492 1.104404 36.964499 -0.585438 1.985552 39.176155 0.000002 0.000003 -0.000003 -0.000004 0.000002 -0.000000 -0.000000 -0.000000 0.000000 -0.000004 0.000001 0.000001 -0.000001 0.000001 0.000003 -0.000001 0.000001 0.000003 -0.000001 0.000001 0.000003 -0.000001 0.000001 0.000003 0.000001 -0.000000 -0.000000 0.000001 -0.000000 -0.000000 0.000001 -0.000000 -0.000000 0.000001 -0.000000 -0.000000 0.000001 -0.000000 -0.000000 0.000001 -0.000000 -0.000000 0.000001 -0.000000 -0.000000 0.000000 -0.000002 -0.000000 -0.000000 -0.000002 0.000000 
9.709345 90.413147 1.215964 3.940873 -48.240550 3.499676 -0.000000 -0.000000 -0.000000 -16.479206 16.708688 4.202276 37.460698 24.744932 3.312876 -16.748708 22.890401 -14.487398 -0.000000 -0.000000 0.000000 -0.000000 0.000000 -0.000001 -18.856103 -39.441593 -21.444750 34.832370 -10.997657 -2.201663 -17.936562 -8.644906 16.578696 -0.000000 0.000000 -0.000000 -0.000000 -0.000002 0.000000 9.926383 -5.780565 2.113521 2.967046 -1.211536 -0.652811 -9.020274 -4.366685 -1.601919 -1.677045 -0.996354 -0.850414 -1.677050 -0.996346 -0.850413 0.000000 0.000002 -0.000000 -1.677045 -0.996344 -0.850414 -1.677046 -0.996365 -0.850414 -0.000000 -0.000000 0.000000 0.000000 0.000002 -0.000000 -0.878237 -4.226534 -2.233010 13.531506 6.780616 -62.153014 -0.020242 -42.480618 -0.009959 -13.978590 -1.700604 0.681731 10.610728 -8.609778 14.293149 -0.357701 14.631831 -7.082081 -0.000002 -0.000002 -0.000008 1.074737 -1.682890 -15.031745 -0.013502 -1.086871 -24.167996 -0.000001 -0.000000 0.000001 1.556049 -0.222475 -33.860287 -0.339058 -1.382939 -28.200477 -0.000000 0.000001 -0.000002 -0.383727 -2.808705 -41.684235 -0.402816 -1.527386 -30.088745 -0.000000 -0.000001 0.000001 0.287504 -1.145987 -35.957183 -0.410975 -1.749795 -33.816717 0.000003 -0.000003 0.000002 -0.000000 0.000001 0.000002 -0.000000 0.000001 0.000002 -0.000001 0.000001 0.000002 -0.000001 0.000002 -0.000000 -0.000000 0.000003 -0.000002 -0.000001 0.000002 -0.000000 0.000000 0.000003 -0.000000 -0.846759 0.820774 0.916898 2.989855 9.871421 70.799528 0.512261 47.191064 -0.227951 14.622740 15.064745 2.863390 8.265280 7.734440 -18.880813 5.407323 -20.572675 9.835180 0.000002 -0.000003 -0.000003 0.423804 3.988747 18.092830 -0.070897 1.206694 27.024436 -0.000000 -0.000002 -0.000001 -5.693478 0.419510 35.471320 -0.331025 1.367875 27.864935 -0.000003 0.000000 0.000001 -11.722674 -3.292678 42.202571 -0.507884 1.695978 33.824340 -0.000000 0.000002 -0.000000 -5.917760 1.153299 36.846548 -0.580056 1.978860 39.019201 0.000001 0.000002 -0.000001 -0.000000 0.000002 -0.000001 -0.000000 -0.000000 0.000000 -0.000000 0.000001 -0.000001 -0.000000 0.000000 0.000001 -0.000000 0.000000 -0.000001 -0.000000 0.000000 0.000001 -0.000000 -0.000000 0.000000 0.000001 -0.000000 -0.000000 0.000001 -0.000000 -0.000000 0.000001 -0.000000 -0.000000 0.000001 -0.000000 -0.000000 0.000001 -0.000000 -0.000000 0.000001 -0.000000 -0.000000 0.000001 -0.000000 -0.000000 -0.000001 0.000002 -0.000001 -0.000000 -0.000000 -0.000000 
9.412379 90.466263 0.861903 3.766878 -49.800313 3.525696 -0.000000 0.000001 -0.000000 -16.201410 17.063324 4.444517 37.833432 25.944279 3.301209 -16.579868 22.793087 -14.830709 0.000000 0.000000 -0.000000 0.000000 0.000000 -0.000000 -19.517906 -39.070844 -21.631267 35.406645 -10.335155 -2.177854 -18.363879 -7.981192 15.891212 -0.000000 -0.000003 -0.000000 0.000001 0.000000 -0.000001 9.859124 -5.733456 2.077304 2.895061 -1.071956 -0.562727 -9.100045 -4.316075 -1.464393 -1.675982 -0.936417 -0.865437 -1.675980 -0.936434 -0.865436 -0.000000 -0.000001 0.000000 -1.675980 -0.936457 -0.865435 -1.675988 -0.936397 -0.865440 -0.000000 0.000001 -0.000000 -0.000000 -0.000001 -0.000000 -0.800620 -4.500674 -1.933183 13.652190 6.640058 -62.119614 -0.019420 -42.599798 -0.009510 -13.882670 -2.727295 0.797326 10.581117 -8.637577 14.338669 -0.415002 14.605893 -7.028260 0.000002 0.000004 -0.000006 1.114362 -1.838930 -14.860074 -0.009417 -1.077753 -23.952763 -0.000002 0.000002 0.000002 1.447514 -0.296486 -33.824552 -0.338988 -1.382826 -28.197577 0.000002 0.000000 -0.000001 -0.428759 -2.746239 -41.695375 -0.407287 -1.535079 -30.256922 0.000001 -0.000001 0.000003 0.203721 -1.028226 -35.966233 -0.410862 -1.749630 -33.813087 0.000003 -0.000002 0.000003 -0.000000 0.000001 0.000001 -0.000000 0.000001 0.000001 -0.000000 0.000000 0.000001 -0.000001 0.000002 0.000001 -0.000000 0.000001 0.000001 -0.000001 0.000002 0.000001 -0.000000 0.000002 0.000001 -0.922054 1.266276 0.964827 2.893479 8.881782 70.701569 0.416251 46.895836 -0.192444 14.871105 14.853425 2.950802 8.265284 7.734435 -18.880815 5.407330 -20.572678 9.835187 0.000003 -0.000003 0.000001 0.417027 3.978100 17.908606 -0.063700 1.192406 26.680722 -0.000000 -0.000005 -0.000001 -5.592596 0.494500 35.169081 -0.325999 1.358360 27.654857 0.000001 -0.000000 0.000002 -11.569895 -3.123226 41.996115 -0.504108 1.690290 33.696209 -0.000000 -0.000001 0.000001 -5.821080 1.217422 36.684891 -0.572476 1.969497 38.798210 -0.000000 0.000002 -0.000001 -0.000002 0.000003 -0.000001 -0.000000 -0.000000 0.000001 -0.000002 0.000002 -0.000000 -0.000001 0.000000 -0.000001 -0.000001 0.000000 -0.000000 -0.000001 0.000000 -0.000001 -0.000001 -0.000000 -0.000000 -0.000000 0.000002 -0.000000 -0.000000 0.000002 -0.000000 -0.000000 0.000002 -0.000000 -0.000000 0.000002 -0.000000 -0.000000 0.000002 -0.000000 -0.000000 0.000002 -0.000000 -0.000000 0.000002 -0.000000 -0.000000 0.000000 -0.000000 -0.000000 0.000001 -0.000000 
9.115842 90.542427 0.454870 3.610686 -51.195731 3.472595 -0.000000 0.000000 0.000000 -16.923255 17.191856 5.519544 39.405393 26.704049 3.242333 -15.288146 22.409750 -16.112666 0.000000 -0.000000 -0.000000 0.000002 -0.000001 -0.000001 -19.776683 -38.646108 -21.357223 35.695743 -9.902804 -2.168237 -18.670407 -7.459589 15.220322 0.000000 -0.000000 0.000000 0.000003 -0.000001 -0.000001 9.796672 -5.615070 2.024831 2.839595 -0.944634 -0.432629 -9.159907 -4.281929 -1.286582 -1.672977 -0.900564 -0.864004 -1.672974 -0.900536 -0.864003 -0.000000 -0.000002 0.000000 -1.672979 -0.900580 -0.864002 -1.672985 -0.900544 -0.864009 -0.000000 0.000001 -0.000000 -0.000000 -0.000002 0.000000 -0.726154 -4.749509 -1.633529 13.608984 6.402162 -62.096644 -0.018548 -42.554059 -0.009106 -13.603456 -3.571028 1.026140 10.535364 -8.677436 14.409860 -0.467903 14.589188 -6.973098 0.000001 0.000000 0.000001 1.151720 -2.065176 -14.597900 -0.003376 -1.063939 -23.629333 0.000000 0.000001 0.000001 1.286346 -0.406006 -33.745048 -0.338488 -1.381877 -28.176883 -0.000000 0.000001 -0.000003 -0.495282 -2.655288 -41.684091 -0.411489 -1.542251 -30.413313 -0.000000 0.000001 0.000002 0.084667 -0.856772 -35.964528 -0.409938 -1.748215 -33.782478 0.000004 -0.000002 -0.000001 0.000001 0.000000 0.000000 0.000001 0.000000 0.000000 0.000001 -0.000000 0.000000 -0.000000 0.000001 -0.000000 -0.000000 0.000001 0.000000 -0.000000 0.000001 -0.000000 0.000000 0.000002 0.000001 -0.995144 1.645283 1.031886 2.815502 7.867679 70.540090 0.304936 46.539481 -0.149991 15.123885 14.466173 3.017642 8.265279 7.734439 -18.880815 5.407325 -20.572675 9.835180 0.000001 0.000000 0.000001 0.408417 3.965418 17.675044 -0.054654 1.174351 26.246996 0.000000 0.000001 0.000000 -5.466621 0.586066 34.785686 -0.319738 1.346282 27.387880 -0.000002 -0.000002 0.000003 -11.377716 -2.913348 41.731059 -0.499264 1.683047 33.531434 0.000002 -0.000001 -0.000001 -5.699275 1.294627 36.479241 -0.562730 1.957376 38.514177 0.000001 -0.000000 0.000001 0.000001 0.000000 -0.000001 0.000001 0.000001 -0.000001 0.000001 -0.000000 -0.000003 0.000005 0.000000 0.000000 0.000005 0.000000 0.000001 0.000005 0.000000 0.000000 0.000005 -0.000000 0.000001 0.000001 0.000000 0.000000 0.000001 0.000000 0.000000 0.000001 0.000000 0.000000 0.000001 0.000000 0.000000 0.000001 0.000000 0.000000 0.000001 0.000000 0.000000 0.000001 0.000000 0.000000 -0.000001 0.000002 -0.000000 -0.000000 0.000000 0.000000 
